<?xml version="1.0" encoding="UTF-8"?>
<svg id="SVGDoc" width="22" height="22" xmlns="http://www.w3.org/2000/svg" version="1.1" xmlns:xlink="http://www.w3.org/1999/xlink" xmlns:avocode="https://avocode.com/" viewBox="0 0 22 22"><defs></defs><desc>Generated with Avocode.</desc><g><g><title>search_icon</title><g><title>Shape</title><path d="M17.20276,9.15503c0,4.43784 -3.61267,8.0512 -8.04956,8.0512c-4.43701,0 -8.04956,-3.61336 -8.04956,-8.0512c0,-4.43785 3.61255,-8.0512 8.04956,-8.0512c4.43689,0 8.04956,3.60885 8.04956,8.0512zM0,9.15503c0,5.05058 4.10815,9.15503 9.1532,9.15503c2.32434,0 4.45044,-0.87406 6.0675,-2.31006l5.83337,5.8378c0.10803,0.10813 0.24768,0.1622 0.39185,0.1622c0.14417,0 0.28381,-0.05407 0.39197,-0.1622c0.21619,-0.21626 0.21619,-0.56317 0,-0.77943l-5.83789,-5.83453c1.43237,-1.61745 2.30627,-3.73951 2.30627,-6.06881c0,-5.05059 -4.10803,-9.15503 -9.15308,-9.15503c-5.04504,0 -9.1532,4.10444 -9.1532,9.15503z" fill="#ffffff" fill-opacity="1"></path></g></g></g></svg>