<svg xmlns="http://www.w3.org/2000/svg" width="28" height="28" viewBox="0 0 28 28"><g><g><g><path fill="#4fbb54" d="M14 28c7.732 0 14-6.268 14-14S21.732 0 14 0 0 6.268 0 14s6.268 14 14 14z"/></g><g><path fill="#fff" d="M17.127 17.836c-.825.825-3.013-.083-4.953-2.027-1.94-1.943-2.81-4.126-2.025-4.942l.785-.785c.315-.29.8-.29 1.066 0l1.205 1.153c.192.187.273.46.214.765a.79.79 0 0 1-.503.514c-.382.122-.6.486-.495.91.206.865 1.32 1.94 2.148 2.146.431.08.767-.133.9-.501a.783.783 0 0 1 .531-.51.805.805 0 0 1 .759.22l1.155 1.157c.289.316.288.8-.002 1.115zm-9.691-7.188A7.428 7.428 0 0 0 8 18.318l-.892 2.738 2.835-.907a7.37 7.37 0 0 0 8.567-.324A7.417 7.417 0 0 0 21 11.613c-1-2.982-3.852-4.985-7-4.983a7.37 7.37 0 0 0-6.564 4.018z"/></g></g></g></svg>