<svg xmlns="http://www.w3.org/2000/svg" width="19" height="19" viewBox="0 0 19 19"><g><g><g><path fill="#fff" d="M16.443 14.504l-.762 1.27c-.168.288-.441.5-.762.591-1.538.422-4.224.072-8.29-3.993C2.563 8.306 2.213 5.619 2.636 4.08c.091-.321.303-.595.591-.763l1.27-.762A.365.365 0 0 1 5 2.672l1.112 1.651L7 5.708a.392.392 0 0 1 0 .515l-1.184.884a.875.875 0 0 0-.232 1.123l.09.164C6 9 6.391 9.709 7.841 11.159 9.29 12.609 10 13 10.605 13.325l.164.09a.875.875 0 0 0 1.123-.231L12.776 12a.391.391 0 0 1 .515 0l3.036 2c.17.102.221.33.116.504zm.163-.932l-3.036-2.025a.886.886 0 0 0-1.186.193l-.885 1.137c-.113.123-.32.193-.499.123l-.154-.114c-.557-.304-1.251-.682-2.65-2.08-1.397-1.4-1.776-2.094-2.08-2.65L6 8a.474.474 0 0 1 .123-.5l1.137-.883a.887.887 0 0 0 .193-1.187L5.428 2.394a.88.88 0 0 0-1.188-.268L3 2.89a1.73 1.73 0 0 0-.846 1.06C1.696 5.615 2 8.489 6.275 12.725 9.644 16.094 12.152 17 13.875 17c.397 0 .792 0 1.175-.154A1.73 1.73 0 0 0 16.11 16l.764-1.24a.88.88 0 0 0-.268-1.188z"/><path fill="none" stroke="#fff" stroke-miterlimit="20" stroke-width=".2" d="M16.443 14.504l-.762 1.27c-.168.288-.441.5-.762.591-1.538.422-4.224.072-8.29-3.993C2.563 8.306 2.213 5.619 2.636 4.08c.091-.321.303-.595.591-.763l1.27-.762A.365.365 0 0 1 5 2.672l1.112 1.651L7 5.708a.392.392 0 0 1 0 .515l-1.184.884a.875.875 0 0 0-.232 1.123l.09.164C6 9 6.391 9.709 7.841 11.159 9.29 12.609 10 13 10.605 13.325l.164.09a.875.875 0 0 0 1.123-.231L12.776 12a.391.391 0 0 1 .515 0l3.036 2c.17.102.221.33.116.504zm.163-.932l-3.036-2.025a.886.886 0 0 0-1.186.193l-.885 1.137c-.113.123-.32.193-.499.123l-.154-.114c-.557-.304-1.251-.682-2.65-2.08-1.397-1.4-1.776-2.094-2.08-2.65L6 8a.474.474 0 0 1 .123-.5l1.137-.883a.887.887 0 0 0 .193-1.187L5.428 2.394a.88.88 0 0 0-1.188-.268L3 2.89a1.73 1.73 0 0 0-.846 1.06C1.696 5.615 2 8.489 6.275 12.725 9.644 16.094 12.152 17 13.875 17c.397 0 .792 0 1.175-.154A1.73 1.73 0 0 0 16.11 16l.764-1.24a.88.88 0 0 0-.268-1.188z"/></g></g></g></svg>