<?xml version="1.0" encoding="UTF-8"?>
<svg width="40px" height="35px" viewBox="0 0 40 35" version="1.1" xmlns="http://www.w3.org/2000/svg" xmlns:xlink="http://www.w3.org/1999/xlink">
    <!-- Generator: Sketch 63.1 (92452) - https://sketch.com -->
    <title>33</title>
    <desc>Created with Sketch.</desc>
    <defs>
        <polygon id="path-1" points="0 0.144582092 39.9934762 0.144582092 39.9934762 25.0585582 0 25.0585582"></polygon>
        <polygon id="path-3" points="0.0901151397 0.0307401456 8.50854396 0.0307401456 8.50854396 8.27257741 0.0901151397 8.27257741"></polygon>
        <polygon id="path-5" points="0.171817996 0.0307401456 8.59024681 0.0307401456 8.59024681 8.27257741 0.171817996 8.27257741"></polygon>
    </defs>
    <g id="symbols" stroke="none" stroke-width="1" fill="none" fill-rule="evenodd">
        <g id="header_1.1.12-copy" transform="translate(-873.000000, -59.000000)">
            <g id="header_1.1.12">
                <g id="Group-4" transform="translate(288.000000, 56.000000)">
                    <g id="33" transform="translate(585.000000, 3.000000)">
                        <g id="Group-3" transform="translate(0.000000, 0.043431)">
                            <mask id="mask-2" fill="white">
                                <use xlink:href="#path-1"></use>
                            </mask>
                            <g id="Clip-2"></g>
                            <path d="M36.4458698,11.473106 L29.3651476,11.473106 L29.3651476,8.0661202 L37.3514386,8.0661202 L36.4458698,11.473106 Z M34.9401096,17.1392575 L29.3651476,17.1392575 L29.3651476,13.7292635 L35.8464466,13.7292635 L34.9401096,17.1392575 Z M33.4351176,22.8024008 L29.3651476,22.8024008 L29.3651476,19.395415 L34.3406864,19.395415 L33.4351176,22.8024008 Z M20.4162456,11.473106 L27.0604125,11.473106 L27.0604125,8.0661202 L20.4162456,8.0661202 L20.4162456,11.473106 Z M20.4162456,17.1392575 L27.0604125,17.1392575 L27.0604125,13.7292635 L20.4162456,13.7292635 L20.4162456,17.1392575 Z M20.4162456,22.8024008 L27.0604125,22.8024008 L27.0604125,19.395415 L20.4162456,19.395415 L20.4162456,22.8024008 Z M18.1115106,11.473106 L11.0315566,11.473106 L10.1259878,8.0661202 L18.1115106,8.0661202 L18.1115106,11.473106 Z M18.1115106,17.1392575 L12.5363565,17.1392575 L11.6309798,13.7292635 L18.1115106,13.7292635 L18.1115106,17.1392575 Z M18.1115106,22.8024008 L14.0413485,22.8024008 L13.1359717,19.395415 L18.1115106,19.395415 L18.1115106,22.8024008 Z M39.7529725,6.24840933 C39.5345988,5.97221805 39.1984916,5.80996273 38.8414498,5.80996273 L9.52656463,5.80996273 L8.24666844,0.989306252 C8.1145303,0.491259489 7.65608009,0.14456329 7.13098462,0.14456329 L1.1523099,0.14456329 C0.516203028,0.14456329 -5.76183757e-05,0.649942565 -5.76183757e-05,1.27264203 C-5.76183757e-05,1.89552951 0.516203028,2.40072077 1.1523099,2.40072077 L6.23962835,2.40072077 L7.52048484,7.22231731 L12.0345005,24.2140033 C12.1666386,24.71111 12.6248968,25.0585582 13.1501843,25.0585582 L34.3264739,25.0585582 C34.8508011,25.0585582 35.3092513,24.71111 35.4413894,24.2140033 L39.9561733,7.22231731 C40.04625,6.88445772 39.9711541,6.52460061 39.7529725,6.24840933 L39.7529725,6.24840933 Z" id="Fill-1" fill="#231F20" mask="url(#mask-2)"></path>
                        </g>
                        <g id="Group-6" transform="translate(11.907798, 25.989242)">
                            <mask id="mask-4" fill="white">
                                <use xlink:href="#path-3"></use>
                            </mask>
                            <g id="Clip-5"></g>
                            <path d="M4.29971367,6.01651394 C3.24933068,6.01651394 2.39485017,5.17929151 2.39485017,4.15085972 C2.39485017,3.12261595 3.24933068,2.28689762 4.29971367,2.28689762 C5.34932842,2.28689762 6.20380893,3.12336801 6.20380893,4.15085972 C6.20380893,5.18004356 5.3499046,6.01651394 4.29971367,6.01651394 M4.29971367,0.0307401456 C1.97846137,0.0307401456 0.0901151397,1.87928517 0.0901151397,4.15085972 C0.0901151397,6.42318633 1.97846137,8.27267142 4.29971367,8.27267142 C6.62019772,8.27267142 8.50854396,6.42318633 8.50854396,4.15085972 C8.50854396,1.87928517 6.62019772,0.0307401456 4.29971367,0.0307401456" id="Fill-4" fill="#231F20" mask="url(#mask-4)"></path>
                        </g>
                        <g id="Group-9" transform="translate(26.888575, 25.989242)">
                            <mask id="mask-6" fill="white">
                                <use xlink:href="#path-5"></use>
                            </mask>
                            <g id="Clip-8"></g>
                            <path d="M4.38064828,6.01651394 C3.33103354,6.01651394 2.47655303,5.17929151 2.47655303,4.15085972 C2.47655303,3.12261595 3.33103354,2.28689762 4.38064828,2.28689762 C5.43103127,2.28689762 6.28551179,3.12336801 6.28551179,4.15085972 C6.28551179,5.18004356 5.43103127,6.01651394 4.38064828,6.01651394 M4.38064828,0.0307401456 C2.06016423,0.0307401456 0.171817996,1.87928517 0.171817996,4.15085972 C0.171817996,6.42318633 2.06016423,8.27267142 4.38064828,8.27267142 C6.70190058,8.27267142 8.59024681,6.42318633 8.59024681,4.15085972 C8.59024681,1.87928517 6.70190058,0.0307401456 4.38064828,0.0307401456" id="Fill-7" fill="#231F20" mask="url(#mask-6)"></path>
                        </g>
                    </g>
                </g>
            </g>
        </g>
    </g>
</svg>