<svg xmlns="http://www.w3.org/2000/svg" width="22" height="24" viewBox="0 0 22 24"><g><g><g><path fill="#fff" d="M11 5c1.492 0 2.698 1.25 2.7 2.74a2.7 2.7 0 0 1-2.7 2.703A2.698 2.698 0 0 1 8.307 7.74C8.307 6.249 9.514 5 11 5zm0 6.482A3.742 3.742 0 0 0 11 4a3.736 3.736 0 0 0-3.73 3.74A3.736 3.736 0 0 0 11 11.483z"/><path fill="none" stroke="#1e421e" stroke-miterlimit="20" stroke-width=".4" d="M11 5c1.492 0 2.698 1.25 2.7 2.74a2.7 2.7 0 0 1-2.7 2.703A2.698 2.698 0 0 1 8.307 7.74C8.307 6.249 9.514 5 11 5zm0 6.482A3.742 3.742 0 0 0 11 4a3.736 3.736 0 0 0-3.73 3.74A3.736 3.736 0 0 0 11 11.483z"/></g><g><path fill="#fff" d="M17.481 19.074c-.286 0-.481-.232-.481-.52V17.27c0-2.054-1.7-3.719-3.75-3.72h-4.5C6.7 13.55 5 15.215 5 17.27v1.285c0 .287-.195.52-.481.52a.519.519 0 0 1-.519-.52V17.27a4.76 4.76 0 0 1 4.75-4.76h4.499A4.76 4.76 0 0 1 18 17.27v1.285c0 .287-.232.52-.519.52z"/><path fill="none" stroke="#1e421e" stroke-miterlimit="20" stroke-width=".4" d="M17.481 19.074c-.286 0-.481-.232-.481-.52V17.27c0-2.054-1.7-3.719-3.75-3.72h-4.5C6.7 13.55 5 15.215 5 17.27v1.285c0 .287-.195.52-.481.52a.519.519 0 0 1-.519-.52V17.27a4.76 4.76 0 0 1 4.75-4.76h4.499A4.76 4.76 0 0 1 18 17.27v1.285c0 .287-.232.52-.519.52z"/></g></g></g></svg>