<?xml version="1.0" encoding="UTF-8"?>
<svg width="22px" height="22px" viewBox="0 0 22 22" version="1.1" xmlns="http://www.w3.org/2000/svg" xmlns:xlink="http://www.w3.org/1999/xlink">
    <!-- Generator: Sketch 63.1 (92452) - https://sketch.com -->
    <title>16</title>
    <desc>Created with Sketch.</desc>
    <g id="Symbols" stroke="none" stroke-width="1" fill="none" fill-rule="evenodd">
        <g id="header_1.2.2" transform="translate(-1007.000000, -44.000000)" fill="#000000" fill-rule="nonzero">
            <g id="3-icons">
                <g transform="translate(474.000000, 41.000000)">
                    <g id="טלפון" transform="translate(402.000000, 0.000000)">
                        <g id="16" transform="translate(142.000000, 14.000000) scale(-1, 1) translate(-142.000000, -14.000000) translate(131.000000, 3.000000)">
                            <path d="M15.1861408,11.5364826 C15.1434223,11.6021542 15.1434223,11.6678259 15.1220631,11.7553881 C15.1007039,12.0399652 15.3142961,12.3026517 15.591966,12.3245423 C15.8696359,12.3464328 16.1259466,12.1275274 16.1473058,11.8429502 C16.1473058,11.7772786 16.1473058,11.711607 16.168665,11.6021542 C16.168665,11.4927015 16.168665,11.4270299 16.168665,11.3613582 C16.168665,10.7265323 16.0618689,10.113597 15.8696359,9.52255224 C15.6133252,8.75638308 15.1647816,8.07777612 14.630801,7.50862189 C13.968665,6.83001493 13.1570146,6.34842289 12.238568,6.08573632 C11.8113835,5.97628358 11.3414806,5.91061194 10.8929369,5.91061194 C10.7434223,5.91061194 10.5939078,5.91061194 10.423034,5.93250249 C10.2735194,5.95439303 10.1240049,5.97628358 9.97449029,5.99817413 C9.69682039,6.04195522 9.50458738,6.32653234 9.56866505,6.58921891 C9.6113835,6.87379602 9.8890534,7.07081095 10.1453641,7.0051393 C10.2735194,6.98324876 10.3803155,6.96135821 10.5084709,6.96135821 C10.5298301,6.96135821 10.5511893,6.96135821 10.5725485,6.96135821 C10.6793447,6.96135821 10.7861408,6.93946766 10.8929369,6.93946766 C12.0676942,6.93946766 13.1570146,7.4210597 13.9259466,8.23100995 C14.6948786,9.01906965 15.1647816,10.0917065 15.1861408,11.2956866 L15.1861408,11.3394677 C15.1861408,11.4270299 15.1861408,11.4927015 15.1861408,11.5364826 Z" id="Shape"></path>
                            <path d="M18.0055583,12.0180746 C17.984199,12.3026517 18.1977913,12.5653383 18.4754612,12.5872289 C18.7531311,12.6091194 19.0094417,12.3902139 19.030801,12.1056368 C19.0521602,11.8648408 19.0521602,11.6240448 19.0521602,11.3832488 C19.0521602,10.9016567 19.0094417,10.4419552 18.9453641,9.98225373 C18.6676942,8.23100995 17.8346845,6.65489055 16.6599272,5.45091045 C15.3142961,4.07180597 13.5201214,3.17429353 11.5337136,3.0210597 C11.3201214,2.99916915 11.0851699,2.99916915 10.8715777,2.99916915 C10.6366262,2.99916915 10.4016748,2.99916915 10.1667233,3.0210597 C9.93177184,3.04295025 9.69682039,3.0648408 9.46186893,3.10862189 C9.18419903,3.15240299 8.99196602,3.4369801 9.05604369,3.69966667 C9.09876214,3.98424378 9.37643204,4.18125871 9.63274272,4.11558706 C9.78225728,4.09369652 9.91041262,4.07180597 10.0599272,4.04991542 C10.1240049,4.04991542 10.1880825,4.02802488 10.2521602,4.02802488 C10.4657524,4.00613433 10.6793447,4.00613433 10.8715777,4.00613433 C11.5977913,4.00613433 12.2812864,4.11558706 12.9434223,4.31260199 C14.0968204,4.66285075 15.1220631,5.29767662 15.9550728,6.15140796 C16.638568,6.85190547 17.1939078,7.70563682 17.5570146,8.6250398 C17.8774029,9.4568806 18.0696359,10.3762836 18.0696359,11.3394677 C18.0696359,11.4051393 18.0696359,11.4927015 18.0696359,11.5583731 C18.0269175,11.7334975 18.0055583,11.8648408 18.0055583,12.0180746 Z" id="Shape"></path>
                            <path d="M18.7317718,3.34941791 C16.7026456,1.26981592 13.9259466,0.000164179104 10.8502184,0.000164179104 C10.5298301,0.000164179104 10.2094417,0.0220547264 9.8890534,0.0439452736 C9.56866505,0.0658358209 9.2482767,0.109616915 8.92788835,0.175288557 C8.65021845,0.219069652 8.45798544,0.503646766 8.52206311,0.766333333 C8.56478155,1.05091045 8.84245146,1.24792537 9.09876214,1.18225373 C9.2482767,1.16036318 9.37643204,1.13847264 9.5259466,1.11658209 C9.67546117,1.09469154 9.82497573,1.072801 9.97449029,1.072801 C10.2735194,1.05091045 10.5511893,1.0290199 10.8502184,1.0290199 C13.6269175,1.0290199 16.1473058,2.18921891 17.984199,4.04991542 C19.799733,5.91061194 20.9317718,8.49369652 20.9317718,11.3613582 C20.9317718,11.514592 20.9317718,11.6897164 20.9317718,11.8429502 C20.9317718,11.9742935 20.9104126,12.1056368 20.9104126,12.2588706 C20.8890534,12.5434478 21.1026456,12.8061343 21.3803155,12.8280249 C21.6579854,12.8499154 21.9142961,12.63101 21.9356553,12.3464328 C21.9570146,12.0180746 21.9783738,11.6897164 21.9783738,11.3832488 C21.9783738,8.2529005 20.7395388,5.40712935 18.7317718,3.34941791 Z" id="Shape"></path>
                            <path d="M21.1880825,16.6150896 L17.4075,14.5354876 C16.1473058,13.83499 16.1045874,14.2946915 14.7803155,15.7394677 C14.4599272,16.0897164 13.8618689,17.0091194 13.1570146,16.833995 C11.6832282,16.4618557 8.92788835,14.2509104 8.03080097,13.2439453 C7.6036165,12.7623532 5.7667233,10.4638458 5.74536408,9.71956716 C5.70264563,8.58125871 8.13759709,8.01210448 7.34730583,5.8449403 L5.65992718,1.97031343 C4.07934466,-1.7510796 -0.342014563,4.20314925 0.021092233,6.98324876 C0.960898058,13.83499 12.6871117,24.911607 19.223034,21.2558856 C20.6754612,20.4240448 22.6405097,17.512602 21.1880825,16.6150896 Z" id="Shape"></path>
                        </g>
                    </g>
                </g>
            </g>
        </g>
    </g>
</svg>