<?xml version="1.0" encoding="UTF-8"?>
<svg width="34px" height="32px" viewBox="0 0 34 32" version="1.1" xmlns="http://www.w3.org/2000/svg" xmlns:xlink="http://www.w3.org/1999/xlink">
    <!-- Generator: Sketch 63.1 (92452) - https://sketch.com -->
    <title>11</title>
    <desc>Created with Sketch.</desc>
    <g id="symbols" stroke="none" stroke-width="1" fill="none" fill-rule="evenodd">
        <g id="header_1.1.12-copy" transform="translate(-926.000000, -61.000000)" fill="#000000" fill-rule="nonzero">
            <g id="header_1.1.12">
                <g id="Group-4" transform="translate(288.000000, 56.000000)">
                    <g id="11" transform="translate(638.000000, 5.000000)">
                        <path d="M16.9270567,17.9365948 C21.9466383,17.9365948 26.0180177,13.9194647 26.0180177,8.96689963 C26.0180177,4.01433457 21.946578,0.0246840149 16.9270567,0.0246840149 C11.9075355,0.0246840149 7.83609574,4.04181413 7.83609574,8.96689963 C7.83609574,13.8919851 11.9074752,17.9365948 16.9270567,17.9365948 Z M16.9270567,2.36342007 C20.608039,2.36342007 23.6198121,5.33495911 23.6198121,8.96689963 C23.6198121,12.5988401 20.608039,15.5703197 16.9270567,15.5703197 C13.2460745,15.5703197 10.2343014,12.5987807 10.2343014,8.96684015 C10.2343014,5.33489963 13.2460142,2.36342007 16.9270567,2.36342007 Z" id="Shape"></path>
                        <path d="M1.19910284,31.9414126 L32.7665355,31.9414126 C33.435805,31.9414126 33.9656383,31.4186468 33.9656383,30.7583048 C33.9656383,24.5675539 28.8624433,19.5048922 22.5600851,19.5048922 L11.4055532,19.5048922 C5.13110638,19.5048922 0,24.5400149 0,30.7583048 C0,31.4186468 0.529833333,31.9414126 1.19910284,31.9414126 Z M11.4055532,21.8711078 L22.5600851,21.8711078 C27.1334468,21.8711078 30.8981028,25.2278959 31.4837589,29.5751375 L2.48187943,29.5751375 C3.06747518,25.2554349 6.83219149,21.8711078 11.4055532,21.8711078 Z" id="Shape"></path>
                    </g>
                </g>
            </g>
        </g>
    </g>
</svg>